<mxfile host="65bd71144e">
    <diagram id="id9vtQxmMrgesIR4HKya" name="Page-1">
        <mxGraphModel dx="686" dy="600" grid="1" gridSize="10" guides="1" tooltips="1" connect="1" arrows="1" fold="1" page="1" pageScale="1" pageWidth="850" pageHeight="1100" math="1" shadow="0">
            <root>
                <mxCell id="0"/>
                <mxCell id="1" parent="0"/>
                <mxCell id="6" value="" style="edgeStyle=none;html=1;" edge="1" parent="1" source="4" target="5">
                    <mxGeometry relative="1" as="geometry"/>
                </mxCell>
                <mxCell id="4" value="begin" style="ellipse;whiteSpace=wrap;html=1;" vertex="1" parent="1">
                    <mxGeometry x="70" y="270" width="120" height="80" as="geometry"/>
                </mxCell>
                <mxCell id="11" value="" style="edgeStyle=none;html=1;" edge="1" parent="1" source="5" target="10">
                    <mxGeometry relative="1" as="geometry"/>
                </mxCell>
                <mxCell id="5" value="&lt;span&gt;$$x_i,y_i,i=\overline{0,n}$$&lt;/span&gt;" style="shape=parallelogram;perimeter=parallelogramPerimeter;whiteSpace=wrap;html=1;fixedSize=1;" vertex="1" parent="1">
                    <mxGeometry x="70" y="400" width="120" height="60" as="geometry"/>
                </mxCell>
                <mxCell id="9" value="3 mốc nội suy:&lt;br&gt;$$n = 3 \; (x_{k-1}, x_{k}, x_{k+1})&amp;nbsp; \\f'(x_k)=\frac{y_{k+1}-y_{k-1}}{2h}$$" style="shape=note;whiteSpace=wrap;html=1;backgroundOutline=1;darkOpacity=0.05;" vertex="1" parent="1">
                    <mxGeometry x="60" y="120" width="170" height="100" as="geometry"/>
                </mxCell>
                <mxCell id="13" value="" style="edgeStyle=none;html=1;" edge="1" parent="1" source="10" target="12">
                    <mxGeometry relative="1" as="geometry">
                        <mxPoint x="270" y="540" as="targetPoint"/>
                    </mxGeometry>
                </mxCell>
                <mxCell id="14" value="yes" style="edgeLabel;html=1;align=center;verticalAlign=middle;resizable=0;points=[];" vertex="1" connectable="0" parent="13">
                    <mxGeometry x="-0.5631" y="1" relative="1" as="geometry">
                        <mxPoint as="offset"/>
                    </mxGeometry>
                </mxCell>
                <mxCell id="16" value="" style="edgeStyle=none;html=1;" edge="1" parent="1" source="10" target="15">
                    <mxGeometry relative="1" as="geometry"/>
                </mxCell>
                <mxCell id="17" value="no" style="edgeLabel;html=1;align=center;verticalAlign=middle;resizable=0;points=[];" vertex="1" connectable="0" parent="16">
                    <mxGeometry x="-0.5429" relative="1" as="geometry">
                        <mxPoint as="offset"/>
                    </mxGeometry>
                </mxCell>
                <mxCell id="10" value="$$n &amp;lt; 3$$" style="rhombus;whiteSpace=wrap;html=1;" vertex="1" parent="1">
                    <mxGeometry x="90" y="500" width="80" height="80" as="geometry"/>
                </mxCell>
                <mxCell id="12" value="end" style="ellipse;whiteSpace=wrap;html=1;" vertex="1" parent="1">
                    <mxGeometry x="490" y="510" width="120" height="60" as="geometry"/>
                </mxCell>
                <mxCell id="19" value="" style="edgeStyle=none;html=1;exitX=0.5;exitY=1;exitDx=0;exitDy=0;" edge="1" parent="1" source="22" target="18">
                    <mxGeometry relative="1" as="geometry">
                        <mxPoint x="300" y="780" as="sourcePoint"/>
                    </mxGeometry>
                </mxCell>
                <mxCell id="24" value="yes" style="edgeLabel;html=1;align=center;verticalAlign=middle;resizable=0;points=[];" vertex="1" connectable="0" parent="19">
                    <mxGeometry x="-0.4713" relative="1" as="geometry">
                        <mxPoint as="offset"/>
                    </mxGeometry>
                </mxCell>
                <mxCell id="15" value="$$k=1\\&lt;br&gt;h=x_k-x_{k-1}$$" style="whiteSpace=wrap;html=1;" vertex="1" parent="1">
                    <mxGeometry x="70" y="650" width="120" height="60" as="geometry"/>
                </mxCell>
                <mxCell id="21" value="" style="edgeStyle=none;html=1;" edge="1" parent="1" source="18" target="20">
                    <mxGeometry relative="1" as="geometry"/>
                </mxCell>
                <mxCell id="18" value="$$f'_k=\frac{y_{k+1}-y_{k-1}}{2h}&lt;br&gt;$$" style="whiteSpace=wrap;html=1;" vertex="1" parent="1">
                    <mxGeometry x="70" y="880" width="120" height="60" as="geometry"/>
                </mxCell>
                <mxCell id="23" value="" style="edgeStyle=none;html=1;exitX=0.5;exitY=1;exitDx=0;exitDy=0;" edge="1" parent="1" source="15" target="22">
                    <mxGeometry relative="1" as="geometry">
                        <mxPoint x="130" y="720" as="sourcePoint"/>
                    </mxGeometry>
                </mxCell>
                <mxCell id="25" style="edgeStyle=none;html=1;exitX=0;exitY=0.5;exitDx=0;exitDy=0;entryX=0;entryY=0.5;entryDx=0;entryDy=0;" edge="1" parent="1" source="20" target="22">
                    <mxGeometry relative="1" as="geometry">
                        <Array as="points">
                            <mxPoint x="30" y="1010"/>
                            <mxPoint x="30" y="790"/>
                        </Array>
                    </mxGeometry>
                </mxCell>
                <mxCell id="20" value="$$k=k+1$$" style="whiteSpace=wrap;html=1;" vertex="1" parent="1">
                    <mxGeometry x="70" y="980" width="120" height="60" as="geometry"/>
                </mxCell>
                <mxCell id="30" value="" style="edgeStyle=none;html=1;" edge="1" parent="1" source="22" target="29">
                    <mxGeometry relative="1" as="geometry"/>
                </mxCell>
                <mxCell id="32" value="no" style="edgeLabel;html=1;align=center;verticalAlign=middle;resizable=0;points=[];" vertex="1" connectable="0" parent="30">
                    <mxGeometry x="-0.5368" y="-4" relative="1" as="geometry">
                        <mxPoint as="offset"/>
                    </mxGeometry>
                </mxCell>
                <mxCell id="22" value="$$k&amp;lt;n-1$$" style="rhombus;whiteSpace=wrap;html=1;" vertex="1" parent="1">
                    <mxGeometry x="90" y="750" width="80" height="80" as="geometry"/>
                </mxCell>
                <mxCell id="31" style="edgeStyle=none;html=1;exitX=1;exitY=0.5;exitDx=0;exitDy=0;entryX=0.5;entryY=1;entryDx=0;entryDy=0;" edge="1" parent="1" source="29" target="12">
                    <mxGeometry relative="1" as="geometry">
                        <Array as="points">
                            <mxPoint x="550" y="790"/>
                        </Array>
                    </mxGeometry>
                </mxCell>
                <mxCell id="29" value="$$f'_i,i=\overline{1,n-1}$$" style="shape=parallelogram;perimeter=parallelogramPerimeter;whiteSpace=wrap;html=1;fixedSize=1;" vertex="1" parent="1">
                    <mxGeometry x="290" y="760" width="140" height="60" as="geometry"/>
                </mxCell>
                <mxCell id="33" value="4 mốc nội suy:&lt;br&gt;$$n=4\; (x_{k-1}, x_{k}, x_{k+1}, x_{k+2})&lt;br&gt;: \\&lt;br&gt;f'(x_k)=\frac{1}{6h}(-2y_{k-1}-3y_k+6y_{k+1}-y_{k+2})\\&lt;br&gt;f'(x_{k+1})=\frac{1}{6h}(y_{k-1}-6y_k+3y_{k+1}+2y_{k+2})$$" style="shape=note;whiteSpace=wrap;html=1;backgroundOutline=1;darkOpacity=0.05;" vertex="1" parent="1">
                    <mxGeometry x="870" y="95" width="330" height="150" as="geometry"/>
                </mxCell>
                <mxCell id="34" value="&lt;font style=&quot;font-size: 20px&quot;&gt;Tính gần đúng đạo hàm&lt;/font&gt;" style="text;html=1;strokeColor=none;fillColor=none;align=center;verticalAlign=middle;whiteSpace=wrap;rounded=0;" vertex="1" parent="1">
                    <mxGeometry x="268" y="30" width="315" height="30" as="geometry"/>
                </mxCell>
                <mxCell id="35" value="" style="edgeStyle=none;html=1;" edge="1" source="36" target="38" parent="1">
                    <mxGeometry relative="1" as="geometry"/>
                </mxCell>
                <mxCell id="36" value="begin" style="ellipse;whiteSpace=wrap;html=1;" vertex="1" parent="1">
                    <mxGeometry x="940" y="280" width="120" height="80" as="geometry"/>
                </mxCell>
                <mxCell id="37" value="" style="edgeStyle=none;html=1;" edge="1" source="38" target="43" parent="1">
                    <mxGeometry relative="1" as="geometry"/>
                </mxCell>
                <mxCell id="38" value="&lt;span&gt;$$x_i,y_i,i=\overline{0,n}$$&lt;/span&gt;" style="shape=parallelogram;perimeter=parallelogramPerimeter;whiteSpace=wrap;html=1;fixedSize=1;" vertex="1" parent="1">
                    <mxGeometry x="940" y="410" width="120" height="60" as="geometry"/>
                </mxCell>
                <mxCell id="39" value="" style="edgeStyle=none;html=1;" edge="1" source="43" target="44" parent="1">
                    <mxGeometry relative="1" as="geometry">
                        <mxPoint x="1140" y="550" as="targetPoint"/>
                    </mxGeometry>
                </mxCell>
                <mxCell id="40" value="yes" style="edgeLabel;html=1;align=center;verticalAlign=middle;resizable=0;points=[];" vertex="1" connectable="0" parent="39">
                    <mxGeometry x="-0.5631" y="1" relative="1" as="geometry">
                        <mxPoint as="offset"/>
                    </mxGeometry>
                </mxCell>
                <mxCell id="41" value="" style="edgeStyle=none;html=1;" edge="1" source="43" target="47" parent="1">
                    <mxGeometry relative="1" as="geometry"/>
                </mxCell>
                <mxCell id="42" value="no" style="edgeLabel;html=1;align=center;verticalAlign=middle;resizable=0;points=[];" vertex="1" connectable="0" parent="41">
                    <mxGeometry x="-0.5429" relative="1" as="geometry">
                        <mxPoint as="offset"/>
                    </mxGeometry>
                </mxCell>
                <mxCell id="43" value="$$n &amp;lt; 4$$" style="rhombus;whiteSpace=wrap;html=1;" vertex="1" parent="1">
                    <mxGeometry x="960" y="510" width="80" height="80" as="geometry"/>
                </mxCell>
                <mxCell id="44" value="end" style="ellipse;whiteSpace=wrap;html=1;" vertex="1" parent="1">
                    <mxGeometry x="1360" y="520" width="120" height="60" as="geometry"/>
                </mxCell>
                <mxCell id="45" value="" style="edgeStyle=none;html=1;exitX=0.5;exitY=1;exitDx=0;exitDy=0;" edge="1" source="55" target="49" parent="1">
                    <mxGeometry relative="1" as="geometry">
                        <mxPoint x="1170" y="790" as="sourcePoint"/>
                    </mxGeometry>
                </mxCell>
                <mxCell id="46" value="yes" style="edgeLabel;html=1;align=center;verticalAlign=middle;resizable=0;points=[];" vertex="1" connectable="0" parent="45">
                    <mxGeometry x="-0.4713" relative="1" as="geometry">
                        <mxPoint as="offset"/>
                    </mxGeometry>
                </mxCell>
                <mxCell id="47" value="$$k=1\\&lt;br&gt;h=x_k-x_{k-1}$$" style="whiteSpace=wrap;html=1;" vertex="1" parent="1">
                    <mxGeometry x="940" y="660" width="120" height="60" as="geometry"/>
                </mxCell>
                <mxCell id="48" value="" style="edgeStyle=none;html=1;" edge="1" source="49" target="52" parent="1">
                    <mxGeometry relative="1" as="geometry"/>
                </mxCell>
                <mxCell id="49" value="$$f'_k=\frac{1}{6h}(-2y_{k-1}-3y_k+6y_{k+1}-y_{k+2})\\&lt;br&gt;f'_{k+1}=\frac{1}{6h}(y_{k-1}-6y_k+3y_{k+1}+2y_{k+2})$$" style="whiteSpace=wrap;html=1;" vertex="1" parent="1">
                    <mxGeometry x="855" y="890" width="290" height="100" as="geometry"/>
                </mxCell>
                <mxCell id="50" value="" style="edgeStyle=none;html=1;exitX=0.5;exitY=1;exitDx=0;exitDy=0;" edge="1" source="47" target="55" parent="1">
                    <mxGeometry relative="1" as="geometry">
                        <mxPoint x="1000" y="730" as="sourcePoint"/>
                    </mxGeometry>
                </mxCell>
                <mxCell id="51" style="edgeStyle=none;html=1;exitX=0;exitY=0.5;exitDx=0;exitDy=0;entryX=0;entryY=0.5;entryDx=0;entryDy=0;" edge="1" source="52" target="55" parent="1">
                    <mxGeometry relative="1" as="geometry">
                        <Array as="points">
                            <mxPoint x="810" y="1090"/>
                            <mxPoint x="810" y="1020"/>
                            <mxPoint x="810" y="800"/>
                            <mxPoint x="900" y="800"/>
                        </Array>
                    </mxGeometry>
                </mxCell>
                <mxCell id="52" value="$$k=k+1$$" style="whiteSpace=wrap;html=1;" vertex="1" parent="1">
                    <mxGeometry x="940" y="1060" width="120" height="60" as="geometry"/>
                </mxCell>
                <mxCell id="53" value="" style="edgeStyle=none;html=1;" edge="1" source="55" target="57" parent="1">
                    <mxGeometry relative="1" as="geometry"/>
                </mxCell>
                <mxCell id="54" value="no" style="edgeLabel;html=1;align=center;verticalAlign=middle;resizable=0;points=[];" vertex="1" connectable="0" parent="53">
                    <mxGeometry x="-0.5368" y="-4" relative="1" as="geometry">
                        <mxPoint as="offset"/>
                    </mxGeometry>
                </mxCell>
                <mxCell id="55" value="$$k&amp;lt;n-2$$" style="rhombus;whiteSpace=wrap;html=1;" vertex="1" parent="1">
                    <mxGeometry x="960" y="760" width="80" height="80" as="geometry"/>
                </mxCell>
                <mxCell id="56" style="edgeStyle=none;html=1;exitX=1;exitY=0.5;exitDx=0;exitDy=0;entryX=0.5;entryY=1;entryDx=0;entryDy=0;" edge="1" source="57" target="44" parent="1">
                    <mxGeometry relative="1" as="geometry">
                        <Array as="points">
                            <mxPoint x="1420" y="800"/>
                        </Array>
                    </mxGeometry>
                </mxCell>
                <mxCell id="57" value="$$f'_i,i=\overline{1,n-1}$$" style="shape=parallelogram;perimeter=parallelogramPerimeter;whiteSpace=wrap;html=1;fixedSize=1;" vertex="1" parent="1">
                    <mxGeometry x="1160" y="770" width="140" height="60" as="geometry"/>
                </mxCell>
            </root>
        </mxGraphModel>
    </diagram>
</mxfile>